<svg xmlns="http://www.w3.org/2000/svg" viewBox="0 0 512 512" width="100%" height="100%">
  <defs>
    <radialGradient id="bgDarkGrad" cx="50%" cy="30%" r="85%">
      <stop offset="0%" stop-color="#0F241E" />
      <stop offset="50%" stop-color="#081713" />
      <stop offset="100%" stop-color="#020907" />
    </radialGradient>

    <linearGradient id="lalKhataGrad" x1="0%" y1="0%" x2="100%" y2="100%">
      <stop offset="0%" stop-color="#F43F5E" />
      <stop offset="35%" stop-color="#DC2626" />
      <stop offset="85%" stop-color="#991B1B" />
      <stop offset="100%" stop-color="#7F1D1D" />
    </linearGradient>

    <linearGradient id="brassGold" x1="0%" y1="0%" x2="100%" y2="100%">
      <stop offset="0%" stop-color="#FFFBEB" />
      <stop offset="25%" stop-color="#FDE68A" />
      <stop offset="60%" stop-color="#F59E0B" />
      <stop offset="100%" stop-color="#B45309" />
    </linearGradient>

    <linearGradient id="karahiBody" x1="0%" y1="0%" x2="0%" y2="100%">
      <stop offset="0%" stop-color="#334155" />
      <stop offset="40%" stop-color="#1E293B" />
      <stop offset="80%" stop-color="#0F172A" />
      <stop offset="100%" stop-color="#020617" />
    </linearGradient>

    <radialGradient id="karahiInnerFood" cx="50%" cy="50%" r="50%">
      <stop offset="0%" stop-color="#F59E0B" />
      <stop offset="50%" stop-color="#EA580C" />
      <stop offset="90%" stop-color="#9A3412" />
      <stop offset="100%" stop-color="#431407" />
    </radialGradient>

    <linearGradient id="bazarSlipGrad" x1="0%" y1="0%" x2="100%" y2="100%">
      <stop offset="0%" stop-color="#FFFFFF" />
      <stop offset="70%" stop-color="#FFFBEB" />
      <stop offset="100%" stop-color="#FEF3C7" />
    </linearGradient>

    <linearGradient id="steamGradient" x1="0%" y1="100%" x2="0%" y2="0%">
      <stop offset="0%" stop-color="#F59E0B" stop-opacity="0.9" />
      <stop offset="100%" stop-color="#F43F5E" stop-opacity="0.1" />
    </linearGradient>

    <filter id="bookShadow" x="-15%" y="-15%" width="130%" height="130%">
      <feDropShadow dx="0" dy="14" stdDeviation="16" flood-color="#000000" flood-opacity="0.65" />
    </filter>
    <filter id="panShadow" x="-20%" y="-20%" width="140%" height="140%">
      <feDropShadow dx="0" dy="18" stdDeviation="18" flood-color="#000000" flood-opacity="0.75" />
    </filter>
  </defs>

  <rect width="512" height="512" rx="116" fill="url(#bgDarkGrad)" />
  <rect width="504" height="504" x="4" y="4" rx="112" fill="none" stroke="#006A4E" stroke-width="2.5" stroke-opacity="0.4" />

  <circle cx="256" cy="270" r="140" fill="#EA580C" opacity="0.22" filter="blur(45px)" />
  <circle cx="210" cy="300" r="120" fill="#006A4E" opacity="0.25" filter="blur(50px)" />

  <g filter="url(#bookShadow)" transform="translate(256,256) rotate(-8) translate(-256,-256)">
    <rect x="74" y="112" width="280" height="300" rx="20" fill="url(#lalKhataGrad)" />
    
    <rect x="74" y="112" width="34" height="300" rx="6" fill="#7F1D1D" />
    <line x1="91" y1="126" x2="91" y2="398" stroke="#FDE68A" stroke-width="3" stroke-dasharray="10 8" opacity="0.85" />
    
    <path d="M74 150 L74 126 C74 118 80 112 88 112 L112 112" fill="none" stroke="url(#brassGold)" stroke-width="6" stroke-linecap="round" />
    <path d="M354 150 L354 126 C354 118 348 112 340 112 L316 112" fill="none" stroke="url(#brassGold)" stroke-width="6" stroke-linecap="round" />
    <path d="M74 374 L74 398 C74 406 80 412 88 412 L112 412" fill="none" stroke="url(#brassGold)" stroke-width="6" stroke-linecap="round" />
    <path d="M354 374 L354 398 C354 406 348 412 340 412 L316 412" fill="none" stroke="url(#brassGold)" stroke-width="6" stroke-linecap="round" />

    <path d="M210 112 L210 170 L220 156 L230 170 L230 112 Z" fill="url(#brassGold)" />
  </g>

  <g filter="url(#bookShadow)" transform="translate(256,256) rotate(10) translate(-256,-256)">
    <rect x="220" y="130" width="200" height="270" rx="14" fill="url(#bazarSlipGrad)" stroke="#E2E8F0" stroke-width="2" />
    
    <rect x="290" y="122" width="60" height="16" rx="5" fill="url(#lalKhataGrad)" stroke="url(#brassGold)" stroke-width="1.5" />

    <circle cx="244" cy="168" r="6" fill="#10B981" />
    <path d="M241 168 L243 170 L248 165" fill="none" stroke="#FFFFFF" stroke-width="2" stroke-linecap="round" />
    <rect x="260" y="164" width="70" height="8" rx="4" fill="#64748B" />
    <rect x="370" y="164" width="30" height="8" rx="4" fill="#94A3B8" />

    <circle cx="244" cy="198" r="6" fill="#10B981" />
    <path d="M241 198 L243 200 L248 195" fill="none" stroke="#FFFFFF" stroke-width="2" stroke-linecap="round" />
    <rect x="260" y="194" width="85" height="8" rx="4" fill="#64748B" />
    <rect x="365" y="194" width="35" height="8" rx="4" fill="#94A3B8" />

    <circle cx="244" cy="228" r="6" fill="#10B981" />
    <path d="M241 228 L243 230 L248 225" fill="none" stroke="#FFFFFF" stroke-width="2" stroke-linecap="round" />
    <rect x="260" y="224" width="60" height="8" rx="4" fill="#64748B" />
    <rect x="360" y="224" width="40" height="8" rx="4" fill="#94A3B8" />

    <circle cx="244" cy="258" r="6" fill="#10B981" />
    <path d="M241 258 L243 260 L248 255" fill="none" stroke="#FFFFFF" stroke-width="2" stroke-linecap="round" />
    <rect x="260" y="254" width="75" height="8" rx="4" fill="#64748B" />
    <rect x="370" y="254" width="30" height="8" rx="4" fill="#94A3B8" />

    <line x1="236" y1="284" x2="404" y2="284" stroke="#CBD5E1" stroke-width="2" stroke-dasharray="6 4" />

    <rect x="236" y="300" width="168" height="42" rx="10" fill="#006A4E" />
    <text x="254" y="328" font-family="system-ui, -apple-system, sans-serif" font-weight="900" font-size="20" fill="#FDE68A">৳</text>
    <text x="276" y="328" font-family="system-ui, -apple-system, sans-serif" font-weight="800" font-size="16" fill="#FFFFFF">১,২৫০/-</text>
  </g>

  <g filter="url(#panShadow)">
    <path d="M220 180 C208 145, 230 120, 218 90" fill="none" stroke="url(#steamGradient)" stroke-width="7" stroke-linecap="round" />
    <path d="M260 170 C248 130, 274 105, 260 70" fill="none" stroke="url(#steamGradient)" stroke-width="8" stroke-linecap="round" />
    <path d="M300 180 C288 145, 310 120, 298 90" fill="none" stroke="url(#steamGradient)" stroke-width="7" stroke-linecap="round" />

    <path d="M128 276 C94 276, 94 316, 128 316" fill="none" stroke="url(#brassGold)" stroke-width="12" stroke-linecap="round" />
    <circle cx="132" cy="284" r="5" fill="#451A03" />
    <circle cx="132" cy="308" r="5" fill="#451A03" />

    <path d="M384 276 C418 276, 418 316, 384 316" fill="none" stroke="url(#brassGold)" stroke-width="12" stroke-linecap="round" />
    <circle cx="380" cy="284" r="5" fill="#451A03" />
    <circle cx="380" cy="308" r="5" fill="#451A03" />

    <path d="M126 290 C126 386, 200 424, 256 424 C312 424, 386 386, 386 290 Z" 
          fill="url(#karahiBody)" stroke="#475569" stroke-width="3" />

    <ellipse cx="256" cy="290" rx="130" ry="46" fill="#1E293B" stroke="url(#brassGold)" stroke-width="5" />

    <ellipse cx="256" cy="292" rx="114" ry="36" fill="url(#karahiInnerFood)" />
    <ellipse cx="256" cy="288" rx="80" ry="18" fill="#FDE68A" opacity="0.35" />

    <path d="M230 310 L180 200 C176 190, 186 182, 194 186 L246 295" fill="url(#brassGold)" stroke="#78350F" stroke-width="2" />
    <circle cx="184" cy="192" r="5" fill="#FDE68A" />
  </g>
</svg>
